HIERARCHY
ROOT Hips
{
	OFFSET 0.000000 89.005402 0.000000
	CHANNELS 6 Xposition Yposition Zposition Xrotation Yrotation Zrotation
	JOINT Spine
	{
		OFFSET 0.116900 10.681000 0.373400
		CHANNELS 3 Xrotation Yrotation Zrotation
		JOINT Spine1
		{
			OFFSET 0.000000 13.840401 0.053500
			CHANNELS 3 Xrotation Yrotation Zrotation
			JOINT Spine2
			{
				OFFSET 0.000000 14.712700 -0.366200
				CHANNELS 3 Xrotation Yrotation Zrotation
				JOINT Neck
				{
					OFFSET 0.000000 35.415497 -3.314200
					CHANNELS 3 Xrotation Yrotation Zrotation
					JOINT Head
					{
						OFFSET 0.000000 16.899200 1.218300
						CHANNELS 3 Xrotation Yrotation Zrotation
						JOINT HeadTop_End
						{
							OFFSET 0.000000 22.206207 2.192500
							CHANNELS 3 Xrotation Yrotation Zrotation
							End Site
							{
								OFFSET 0.000000 22.314178 0.000000
							}
						}
					}
				}
				JOINT LeftShoulder
				{
					OFFSET 12.896400 26.716293 -4.548400
					CHANNELS 3 Xrotation Yrotation Zrotation
					JOINT LeftArm
					{
						OFFSET 19.027000 -4.857010 -1.718400
						CHANNELS 3 Xrotation Yrotation Zrotation
						JOINT LeftForeArm
						{
							OFFSET 24.179897 0.000000 0.000000
							CHANNELS 3 Xrotation Yrotation Zrotation
							JOINT LeftHand
							{
								OFFSET 27.156403 0.000000 0.000000
								CHANNELS 3 Xrotation Yrotation Zrotation
								JOINT LeftHandIndex1
								{
									OFFSET 16.441200 0.000000 0.000000
									CHANNELS 3 Xrotation Yrotation Zrotation
									JOINT LeftHandIndex2
									{
										OFFSET 4.821899 0.000000 0.000000
										CHANNELS 3 Xrotation Yrotation Zrotation
										JOINT LeftHandIndex3
										{
											OFFSET 6.386497 0.000000 0.000000
											CHANNELS 3 Xrotation Yrotation Zrotation
											JOINT LeftHandIndex4
											{
												OFFSET 5.188988 0.000000 0.000000
												CHANNELS 3 Xrotation Yrotation Zrotation
												End Site
												{
													OFFSET -0.178703 5.185913 0.000177
												}
											}
										}
									}
								}
								JOINT LeftHandThumb1
								{
									OFFSET 6.534897 -5.032593 5.900300
									CHANNELS 3 Xrotation Yrotation Zrotation
									JOINT LeftHandThumb2
									{
										OFFSET 3.818176 -2.204422 2.204423
										CHANNELS 3 Xrotation Yrotation Zrotation
										JOINT LeftHandThumb3
										{
											OFFSET 3.252098 -1.877594 1.877601
											CHANNELS 3 Xrotation Yrotation Zrotation
											JOINT LeftHandThumb4
											{
												OFFSET 5.251778 -3.032120 3.032117
												CHANNELS 3 Xrotation Yrotation Zrotation
												End Site
												{
													OFFSET 0.000023 6.780014 0.000000
												}
											}
										}
									}
								}
							}
						}
					}
				}
				JOINT RightShoulder
				{
					OFFSET -12.896300 26.716293 -4.548400
					CHANNELS 3 Xrotation Yrotation Zrotation
					JOINT RightArm
					{
						OFFSET -19.027000 -4.857010 -1.718400
						CHANNELS 3 Xrotation Yrotation Zrotation
						JOINT RightForeArm
						{
							OFFSET -24.179897 0.000000 0.000000
							CHANNELS 3 Xrotation Yrotation Zrotation
							JOINT RightHand
							{
								OFFSET -27.156403 0.000000 0.000000
								CHANNELS 3 Xrotation Yrotation Zrotation
								JOINT RightHandThumb1
								{
									OFFSET -6.591202 -4.852203 5.988100
									CHANNELS 3 Xrotation Yrotation Zrotation
									JOINT RightHandThumb2
									{
										OFFSET -3.818176 -2.204422 2.204423
										CHANNELS 3 Xrotation Yrotation Zrotation
										JOINT RightHandThumb3
										{
											OFFSET -3.252098 -1.877594 1.877601
											CHANNELS 3 Xrotation Yrotation Zrotation
											JOINT RightHandThumb4
											{
												OFFSET -5.251778 -3.032120 3.032117
												CHANNELS 3 Xrotation Yrotation Zrotation
												End Site
												{
													OFFSET -0.000023 6.780014 0.000000
												}
											}
										}
									}
								}
								JOINT RightHandIndex1
								{
									OFFSET -16.029404 0.000000 0.000000
									CHANNELS 3 Xrotation Yrotation Zrotation
									JOINT RightHandIndex2
									{
										OFFSET -5.213303 0.000000 0.000000
										CHANNELS 3 Xrotation Yrotation Zrotation
										JOINT RightHandIndex3
										{
											OFFSET -6.386528 0.000000 0.000000
											CHANNELS 3 Xrotation Yrotation Zrotation
											JOINT RightHandIndex4
											{
												OFFSET -5.189026 0.000000 0.000000
												CHANNELS 3 Xrotation Yrotation Zrotation
												End Site
												{
													OFFSET 0.236702 5.183624 0.001972
												}
											}
										}
									}
								}
							}
						}
					}
				}
			}
		}
	}
	JOINT LeftUpLeg
	{
		OFFSET 14.073000 -7.904099 -1.463000
		CHANNELS 3 Xrotation Yrotation Zrotation
		JOINT LeftLeg
		{
			OFFSET -0.109806 -34.073280 4.093200
			CHANNELS 3 Xrotation Yrotation Zrotation
			JOINT LeftFoot
			{
				OFFSET 0.109806 -29.899420 -6.319000
				CHANNELS 3 Xrotation Yrotation Zrotation
				JOINT LeftToeBase
				{
					OFFSET 1.551100 -14.988700 20.535801
					CHANNELS 3 Xrotation Yrotation Zrotation
					JOINT LeftToe_End
					{
						OFFSET 0.221200 0.570800 13.248301
						CHANNELS 3 Xrotation Yrotation Zrotation
						End Site
						{
							OFFSET 0.000000 13.262435 0.000000
						}
					}
				}
			}
		}
	}
	JOINT RightUpLeg
	{
		OFFSET -13.839300 -7.904099 -1.463000
		CHANNELS 3 Xrotation Yrotation Zrotation
		JOINT RightLeg
		{
			OFFSET 0.109694 -34.073219 4.093300
			CHANNELS 3 Xrotation Yrotation Zrotation
			JOINT RightFoot
			{
				OFFSET -0.109694 -29.899384 -6.319200
				CHANNELS 3 Xrotation Yrotation Zrotation
				JOINT RightToeBase
				{
					OFFSET -1.551100 -14.988700 20.535801
					CHANNELS 3 Xrotation Yrotation Zrotation
					JOINT RightToe_End
					{
						OFFSET -0.221200 0.570900 13.248299
						CHANNELS 3 Xrotation Yrotation Zrotation
						End Site
						{
							OFFSET 0.000000 13.262440 0.000000
						}
					}
				}
			}
		}
	}
}
MOTION
Frames: 7
Frame Time: 0.033333
0.018845 85.424911 1.219030 -0.754052 2.366020 -0.144735 7.370776 2.968368 0.170098 0.481357 0.814618 -0.463704 0.474302 0.830484 -0.473853 2.271995 -1.473308 -0.201509 11.525844 -9.188986 -19.689499 -0.000001 0.000000 0.000001 0.500256 -5.813831 -13.763377 -2.380783 0.403375 -65.646560 29.080914 -36.468955 18.660775 -3.799967 23.717827 -6.479613 0.792694 5.583688 -43.768419 0.859114 3.055982 -31.397563 0.859121 3.055988 -31.397563 -0.000000 0.000002 -0.000000 10.970891 1.835000 5.082427 18.749001 9.488787 3.155920 2.039210 -7.165096 22.222082 0.000001 -0.000002 0.000000 0.515158 5.053015 15.224278 23.715814 42.347043 53.650757 -17.065511 36.919293 -13.112742 -3.847866 -17.627091 2.407462 4.290398 -5.628345 -2.106297 15.395103 -15.724508 -10.383820 -13.914290 -9.367534 -8.504073 0.000003 0.000002 0.000004 0.686148 -4.892853 47.760798 0.895640 -2.747895 36.099367 0.895635 -2.747886 36.099377 0.000001 -0.000005 -0.000001 -7.274254 -1.144221 13.243037 14.411899 0.046207 1.886128 -5.724922 1.946960 -14.982496 0.126193 -0.419309 0.000649 -0.000000 -0.000000 0.000000 -5.112026 -7.970009 -14.421154 10.891843 5.360937 -2.790005 -5.702986 -1.885495 15.973304 -1.032837 -6.463887 1.451411 -0.000000 -0.000001 -0.000000 
0.004901 85.291039 1.234691 -0.857068 2.386571 -0.091225 7.460412 2.915847 -0.019932 0.481361 0.814621 -0.438815 0.474299 0.835052 -0.451010 2.243671 -1.463409 -0.201509 11.582822 -9.217518 -19.544643 0.000001 -0.000000 -0.000001 0.496004 -5.855293 -13.875692 -2.129932 0.484773 -65.483715 29.128035 -36.918692 18.874497 -3.772915 23.915621 -6.519752 0.791070 5.581093 -43.739401 0.857519 3.053362 -31.367534 0.857516 3.053355 -31.367528 0.000000 0.000000 0.000000 10.919260 1.806940 5.098569 18.784535 9.453615 3.156088 2.039213 -7.165104 22.222077 -0.000000 -0.000002 0.000000 0.519969 5.074125 15.101871 24.033322 42.716983 53.621848 -17.601179 36.971213 -13.108654 -3.836526 -17.631121 2.485057 4.238942 -5.598282 -2.109123 15.432095 -15.689431 -10.378201 -13.914288 -9.367535 -8.504067 -0.000003 0.000000 -0.000001 0.684811 -4.890815 47.731752 0.894204 -2.745926 36.069290 0.894194 -2.745914 36.069290 -0.000000 0.000001 0.000000 -7.391858 -1.563737 13.166840 15.097718 0.311486 1.936547 -6.073558 2.013175 -15.094455 0.021084 -0.500503 0.000130 -0.000000 -0.000000 0.000000 -5.383558 -7.749687 -14.496537 11.861083 5.365884 -2.881479 -6.259572 -2.027324 15.995570 -1.037585 -6.452620 1.458260 -0.000000 -0.000000 -0.000000 
-0.017725 85.080429 1.278178 -0.864074 2.473899 -0.051687 7.427151 2.818899 -0.370646 0.463925 0.814620 -0.416499 0.456134 0.844875 -0.429420 2.208386 -1.451367 -0.186845 11.702139 -9.288153 -19.135412 -0.000001 -0.000000 0.000001 0.496517 -5.797341 -13.925144 -1.726688 0.523080 -65.318499 29.355794 -37.583157 19.302381 -3.708090 24.357103 -6.624513 0.792505 5.582255 -43.728463 0.860076 3.057559 -31.415657 0.860080 3.057557 -31.415670 0.000001 0.000002 -0.000000 10.906528 1.643752 5.068509 18.829368 9.409303 3.156358 2.039207 -7.165095 22.222082 -0.000003 -0.000000 0.000001 0.539235 5.083452 14.849178 25.353978 44.344730 53.059689 -19.470871 36.782420 -13.019446 -3.834595 -17.487818 2.549532 4.231899 -5.438561 -2.063337 15.478672 -15.645248 -10.371254 -13.914291 -9.367538 -8.504076 -0.000000 -0.000002 -0.000001 0.686520 -4.892057 47.720858 0.896516 -2.749094 36.117494 0.896509 -2.749085 36.117497 -0.000001 0.000000 -0.000000 -7.872061 -1.787592 13.149315 16.230553 0.170929 1.930219 -6.712046 2.103315 -15.123309 -0.000004 -0.627261 0.000003 -0.000000 -0.000000 0.000000 -5.883089 -7.481361 -14.591417 13.257816 5.290381 -2.968799 -7.086942 -2.181647 16.012082 -1.002867 -6.476008 1.408746 -0.000000 0.000002 -0.000000 
0.066291 85.060104 1.338267 -0.929537 2.707179 -0.083563 7.375337 2.819650 -0.731144 0.467185 0.832106 -0.464780 0.458915 0.862714 -0.477878 2.172225 -1.485099 -0.075815 11.867753 -9.552668 -18.442107 -0.000000 -0.000000 0.000001 0.499937 -5.730486 -13.874491 -1.662323 0.237725 -65.247732 29.622448 -37.665123 19.527625 -3.674363 24.655777 -6.641257 0.806904 5.597617 -43.740255 0.856858 3.052278 -31.355049 0.856854 3.052270 -31.355073 -0.000000 -0.000000 -0.000000 10.952823 1.516035 5.022388 18.826756 9.411871 3.156324 2.042369 -7.164187 22.210443 0.000001 -0.000001 0.000000 0.549935 5.082929 14.726487 25.315726 44.777778 53.369602 -20.217305 36.087100 -12.757625 -3.890730 -17.212852 2.245754 4.284087 -5.316445 -2.005016 15.475957 -15.647839 -10.371656 -13.906865 -9.370331 -8.492581 0.000004 -0.000001 0.000001 0.701811 -4.906255 47.733006 0.893599 -2.745109 36.056804 0.893595 -2.745091 36.056815 0.000000 0.000002 -0.000001 -7.904871 -2.166665 13.100499 16.567174 0.036296 1.863299 -7.045244 2.125919 -15.007712 0.214437 -0.614042 0.001608 -0.000000 -0.000000 0.000000 -5.637485 -7.670948 -14.490651 13.189718 5.182004 -3.226068 -7.162047 -2.220580 16.216373 -1.273013 -6.601283 1.787676 -0.000000 0.000000 -0.000000 
0.263167 85.182785 1.387010 -1.309594 3.323042 -0.233008 7.559653 3.009970 -1.016596 0.570033 0.892862 -0.582585 0.561258 0.924579 -0.597081 2.076754 -1.629417 0.229824 12.175111 -10.338068 -17.463313 0.000001 0.000000 0.000001 0.504845 -5.783402 -13.622957 -2.225741 -0.670123 -65.385367 29.617818 -36.986243 19.255092 -3.687210 24.531352 -6.630777 0.811675 5.602690 -43.743421 0.860564 3.058346 -31.424652 0.860566 3.058344 -31.424690 0.000000 -0.000002 0.000000 10.846891 1.405885 5.035321 18.789996 9.449731 3.155936 2.060264 -7.160210 22.157878 -0.000000 -0.000000 0.000000 0.556063 4.974945 15.045539 23.274988 42.623372 54.871445 -18.828820 35.357413 -12.459922 -3.966375 -17.104211 1.732734 4.179742 -5.204166 -2.007219 15.435893 -15.685823 -10.377646 -13.868224 -9.387704 -8.446163 -0.000002 -0.000001 -0.000001 0.706897 -4.910945 47.736295 0.896934 -2.749677 36.126506 0.896943 -2.749676 36.126534 -0.000000 0.000003 0.000002 -7.360226 -3.445417 13.015913 16.600741 0.489210 1.873973 -7.421557 2.178771 -14.995339 1.151632 -0.769944 0.010831 0.000000 -0.000000 0.000000 -4.519124 -8.435619 -14.197358 12.347337 4.814839 -3.707298 -7.411788 -2.117091 16.751331 -0.595499 -6.370164 2.809160 -0.000000 0.000001 0.000000 
0.450708 85.085083 1.423495 -1.867205 4.366963 -0.641581 7.957136 3.114760 -1.190384 0.671424 0.932827 -0.589032 0.662275 0.965127 -0.605301 1.964793 -1.805211 0.611853 12.651471 -11.243011 -16.526794 0.000001 -0.000001 -0.000002 0.510278 -5.759921 -13.439393 -2.501045 -1.685892 -65.496617 29.983154 -37.117587 19.584804 -3.615783 24.704589 -6.882488 0.796698 5.586685 -43.730115 0.860488 3.058226 -31.423255 0.860489 3.058219 -31.423255 -0.000000 0.000003 -0.000000 10.981276 1.612493 5.038903 18.822215 9.416367 3.156324 2.032240 -7.151102 22.246462 -0.000002 0.000002 0.000002 0.559085 4.926311 15.524101 22.450664 40.337434 55.744818 -17.752524 35.790925 -12.696406 -3.933034 -17.629000 1.802832 4.309269 -5.411252 -2.030816 15.471497 -15.652183 -10.370134 -13.921339 -9.373511 -8.534782 -0.000003 0.000000 -0.000000 0.691001 -4.896159 47.722634 0.896872 -2.749584 36.125082 0.896871 -2.749581 36.125065 -0.000001 -0.000003 0.000000 -7.264572 -5.563880 13.212276 17.780499 1.064372 1.909026 -7.845556 2.273536 -15.186302 0.862569 -0.922489 0.009731 0.000000 0.000000 -0.000000 -3.623909 -9.008097 -14.264522 12.584034 4.558047 -3.890786 -7.432075 -2.392407 19.204327 -1.112775 -5.787596 1.548567 0.000000 0.000000 0.000000 
0.640327 84.860504 1.445839 -2.086395 5.642977 -1.383718 8.115735 3.087414 -0.960238 0.650455 0.921717 -0.454336 0.642113 0.952815 -0.470489 1.965006 -1.910882 0.868841 12.971002 -11.685713 -16.116303 -0.000002 0.000000 -0.000000 0.515423 -5.589056 -13.420620 -2.268069 -2.399769 -65.584159 30.596416 -38.075989 20.439797 -3.503731 24.918849 -7.308682 0.776665 5.563966 -43.671430 0.862641 3.061747 -31.463652 0.862643 3.061740 -31.463666 -0.000000 -0.000001 -0.000000 11.282759 2.074370 5.033471 18.793959 9.444305 3.156133 1.985575 -7.136033 22.393955 -0.000002 0.000003 0.000000 0.559590 4.970977 15.868184 23.231085 39.010106 55.831841 -17.745895 37.066706 -13.305990 -3.833549 -18.648892 2.161945 4.600571 -5.875457 -2.070309 15.442566 -15.679843 -10.370508 -14.009878 -9.349113 -8.682052 -0.000003 -0.000001 -0.000001 0.670360 -4.875709 47.663495 0.898816 -2.752242 36.165555 0.898806 -2.752223 36.165565 0.000001 0.000001 -0.000000 -8.089441 -7.564881 13.707669 19.773553 1.036053 1.927930 -8.391556 2.363417 -15.321516 -0.000018 -0.595601 0.000003 -0.000000 0.000000 -0.000000 -2.439150 -7.713619 -14.061444 12.823843 2.263511 -3.057008 -7.888156 -2.535600 20.363768 -1.777010 -5.688797 2.168564 -0.000000 -0.000000 -0.000000 
